<?xml version="1.0" standalone="no"?>
<!DOCTYPE svg PUBLIC "-//W3C//DTD SVG 20010904//EN"
 "http://www.w3.org/TR/2001/REC-SVG-20010904/DTD/svg10.dtd">
<svg version="1.0" xmlns="http://www.w3.org/2000/svg"
 width="512.000000pt" height="512.000000pt" viewBox="0 0 512.000000 512.000000"
 preserveAspectRatio="xMidYMid meet">
<metadata>
Created by potrace 1.14, written by Peter Selinger 2001-2017
</metadata>
<g transform="translate(0.000000,512.000000) scale(0.100000,-0.100000)"
fill="#000000" stroke="none">
<path d="M1287 4884 c-2 -2 -23 -6 -48 -8 -24 -3 -64 -9 -89 -15 -25 -5 -59
-12 -77 -15 -92 -17 -302 -107 -415 -180 -231 -147 -431 -383 -541 -636 -44
-99 -81 -218 -93 -298 -3 -20 -9 -56 -13 -78 -11 -59 -6 -297 8 -369 24 -126
52 -221 101 -338 l38 -92 735 -1 c404 -1 747 -4 763 -8 15 -4 35 -15 43 -25 9
-10 61 -111 115 -225 55 -113 101 -204 104 -202 2 3 8 22 13 43 5 21 11 45 13
53 7 28 147 574 196 765 27 105 65 253 84 329 38 153 62 193 122 200 35 5 84
-16 100 -42 9 -14 185 -557 316 -972 16 -52 33 -106 38 -120 5 -14 41 -126 80
-250 151 -475 179 -560 180 -546 0 5 20 94 45 197 24 103 46 198 49 211 3 12
7 32 10 43 2 11 12 52 20 90 9 39 32 138 51 220 20 83 37 157 39 165 34 180
61 227 132 237 71 9 88 -15 218 -322 l114 -270 26 59 c14 32 26 60 26 62 0 2
13 32 29 66 15 35 56 128 91 208 34 80 73 156 86 170 l24 25 506 5 506 5 19
60 c77 240 86 526 23 745 -116 409 -386 735 -759 918 -71 35 -209 86 -261 96
-10 3 -39 9 -64 15 -139 31 -387 35 -520 7 -370 -77 -661 -311 -842 -678 -35
-70 -66 -127 -70 -127 -4 -1 -10 9 -14 22 -8 28 -54 121 -82 167 -12 19 -25
42 -28 50 -19 42 -142 194 -211 261 -95 92 -182 154 -288 207 -86 43 -215 88
-280 97 -23 3 -52 8 -65 11 -27 7 -297 14 -303 8z"/>
<path d="M2370 3277 c0 -3 -18 -76 -41 -163 -22 -86 -42 -164 -44 -173 -2 -9
-10 -41 -18 -71 -9 -30 -41 -154 -72 -275 -127 -496 -143 -556 -159 -580 -30
-45 -102 -59 -145 -29 -15 11 -81 134 -181 338 l-157 321 -640 0 -641 1 13
-26 c37 -70 238 -329 350 -450 95 -102 348 -353 494 -490 74 -69 178 -165 230
-214 53 -50 213 -207 356 -350 282 -283 530 -542 793 -829 23 -26 46 -47 51
-47 4 0 32 26 62 58 63 67 262 281 309 332 266 290 645 669 970 970 352 325
595 575 745 765 22 27 45 55 52 62 38 41 233 354 233 375 0 2 -177 3 -394 3
l-395 0 -27 -60 c-32 -72 -69 -158 -159 -365 -138 -319 -145 -330 -217 -330
-65 0 -86 31 -188 275 -91 218 -106 248 -107 223 -1 -7 -31 -141 -67 -298 -37
-157 -74 -316 -82 -355 -8 -38 -22 -97 -30 -130 -9 -33 -18 -70 -20 -83 -22
-114 -69 -291 -82 -306 -65 -72 -163 -45 -192 53 -9 30 -284 892 -335 1051
-93 290 -187 584 -190 599 -16 67 -75 224 -75 198z"/>
</g>
</svg>
